<?xml version="1.0" encoding="utf-8"?>
<!-- Generator: Adobe Illustrator 25.0.0, SVG Export Plug-In . SVG Version: 6.00 Build 0)  -->
<svg version="1.1" id="Layer_1" xmlns="http://www.w3.org/2000/svg" xmlns:xlink="http://www.w3.org/1999/xlink" x="0px" y="0px"
	 viewBox="0 0 50 50" style="enable-background:new 0 0 50 50;" xml:space="preserve">
<style type="text/css">
	.st0{fill:#FFFFFF;}
</style>
<g>
	<g>
		<path class="st0" d="M37.32,9.68c-1.52,0-2.75,1.23-2.75,2.75c0,1.52,1.23,2.75,2.75,2.75c1.52,0,2.75-1.23,2.75-2.75
			C40.07,10.91,38.83,9.68,37.32,9.68z"/>
		<path class="st0" d="M25.09,13.21c-6.37,0-11.55,5.18-11.55,11.55c0,6.37,5.18,11.55,11.55,11.55c6.37,0,11.55-5.18,11.55-11.55
			C36.64,18.39,31.46,13.21,25.09,13.21z M25.09,32.16c-4.08,0-7.4-3.32-7.4-7.4s3.32-7.4,7.4-7.4c4.08,0,7.4,3.32,7.4,7.4
			S29.17,32.16,25.09,32.16z"/>
		<path class="st0" d="M34.26,48.21H15.53c-7.77,0-14.09-6.32-14.09-14.09V15.39C1.45,7.62,7.77,1.3,15.53,1.3h18.73
			c7.77,0,14.09,6.32,14.09,14.09v18.73C48.35,41.89,42.03,48.21,34.26,48.21z M15.53,5.72c-5.34,0-9.68,4.34-9.68,9.68v18.73
			c0,5.34,4.34,9.68,9.68,9.68h18.73c5.34,0,9.68-4.34,9.68-9.68V15.39c0-5.34-4.34-9.68-9.68-9.68H15.53z"/>
	</g>
</g>
</svg>
