<?xml version="1.0" encoding="utf-8"?>
<!-- Generator: Adobe Illustrator 25.0.0, SVG Export Plug-In . SVG Version: 6.00 Build 0)  -->
<svg version="1.1" id="Layer_1" xmlns="http://www.w3.org/2000/svg" xmlns:xlink="http://www.w3.org/1999/xlink" x="0px" y="0px"
	 viewBox="0 0 50 50" style="enable-background:new 0 0 50 50;" xml:space="preserve">
<style type="text/css">
	.st0{fill:#FFFFFF;}
</style>
<path class="st0" d="M44.59,13.09c-5.81,0-10.52-4.71-10.52-10.52h-7.89v30.55c0,3.55-2.88,6.43-6.43,6.43
	c-3.55,0-6.43-2.88-6.43-6.43c0-3.55,2.88-6.43,6.43-6.43c0.67,0,1.42,0.1,2.02,0.29v-8.04c-0.66-0.09-1.34-0.14-2.02-0.14
	c-7.91,0-14.33,6.41-14.33,14.33c0,7.91,6.41,14.33,14.33,14.33c7.91,0,14.33-6.41,14.33-14.33V16.94
	c2.87,2.34,6.53,3.74,10.52,3.74V13.09z"/>
</svg>
