<?xml version="1.0" encoding="UTF-8"?>
<svg xmlns="http://www.w3.org/2000/svg" xmlns:xlink="http://www.w3.org/1999/xlink" width="150px" height="150px" viewBox="0 0 150 150" version="1.1">
<g id="surface1">
<path style=" stroke:none;fill-rule:nonzero;fill:rgb(100%,100%,100%);fill-opacity:1;" d="M 5.863281 144.464844 L 15.808594 107.367188 C 10.183594 97.214844 7.214844 85.828125 7.214844 74.277344 C 7.214844 36.511719 37.949219 5.789062 75.703125 5.789062 C 113.472656 5.789062 144.191406 36.527344 144.191406 74.277344 C 144.191406 112.050781 113.472656 142.769531 75.703125 142.769531 C 64.363281 142.769531 53.175781 139.902344 43.144531 134.472656 Z M 45.019531 120.585938 L 47.367188 121.980469 C 55.992188 127.105469 65.789062 129.839844 75.722656 129.839844 C 106.347656 129.839844 131.269531 104.925781 131.269531 74.296875 C 131.269531 43.664062 106.347656 18.75 75.722656 18.75 C 45.089844 18.75 20.175781 43.664062 20.175781 74.296875 C 20.175781 84.402344 22.980469 94.363281 28.308594 103.097656 L 29.742188 105.464844 L 24.191406 126.183594 Z M 45.019531 120.585938 "/>
<path style=" stroke:none;fill-rule:evenodd;fill:rgb(100%,100%,100%);fill-opacity:1;" d="M 101.203125 83.808594 C 98.386719 82.125 94.710938 80.230469 91.394531 81.597656 C 88.847656 82.636719 87.222656 86.625 85.574219 88.664062 C 84.730469 89.714844 83.714844 89.882812 82.410156 89.355469 C 72.839844 85.546875 65.519531 79.152344 60.238281 70.363281 C 59.339844 69 59.507812 67.921875 60.585938 66.644531 C 62.175781 64.769531 64.183594 62.644531 64.617188 60.105469 C 65.058594 57.566406 63.867188 54.613281 62.816406 52.363281 C 61.480469 49.480469 59.980469 45.375 57.105469 43.757812 C 54.449219 42.257812 50.953125 43.097656 48.597656 45.019531 C 44.519531 48.328125 42.558594 53.535156 42.613281 58.691406 C 42.632812 60.164062 42.808594 61.617188 43.152344 63.027344 C 43.980469 66.433594 45.558594 69.597656 47.324219 72.632812 C 48.660156 74.910156 50.113281 77.113281 51.675781 79.242188 C 56.789062 86.191406 63.152344 92.230469 70.527344 96.75 C 74.203125 99 78.183594 100.980469 82.289062 102.347656 C 86.894531 103.855469 91.007812 105.449219 95.972656 104.507812 C 101.175781 103.519531 106.308594 100.289062 108.375 95.277344 C 108.988281 93.796875 109.289062 92.144531 108.941406 90.566406 C 108.210938 87.300781 103.828125 85.382812 101.203125 83.808594 Z M 101.203125 83.808594 "/>
</g>
</svg>
