<?xml version="1.0" encoding="utf-8"?>
<!-- Generator: Adobe Illustrator 25.0.0, SVG Export Plug-In . SVG Version: 6.00 Build 0)  -->
<svg version="1.1" id="Layer_1" xmlns="http://www.w3.org/2000/svg" xmlns:xlink="http://www.w3.org/1999/xlink" x="0px" y="0px"
	 viewBox="0 0 100 100" style="enable-background:new 0 0 100 100;" xml:space="preserve">
<style type="text/css">
	.st0{fill:#FFFFFF;}
	.st1{fill-rule:evenodd;clip-rule:evenodd;fill:#FFFFFF;}
</style>
<g>
	<path class="st0" d="M3.91,96.31l6.63-24.73c-3.75-6.77-5.73-14.36-5.73-22.06c0-25.18,20.49-45.66,45.66-45.66
		c25.18,0,45.66,20.49,45.66,45.66c0,25.18-20.48,45.66-45.66,45.66c-7.56,0-15.02-1.91-21.71-5.53L3.91,96.31z M30.01,80.39
		l1.57,0.93c5.75,3.42,12.28,5.24,18.9,5.24c20.42,0,37.03-16.61,37.03-37.03c0-20.42-16.61-37.03-37.03-37.03
		c-20.42,0-37.03,16.61-37.03,37.03c0,6.74,1.87,13.38,5.42,19.2l0.96,1.58l-3.7,13.81L30.01,80.39z"/>
	<path class="st1" d="M67.47,55.87c-1.88-1.12-4.33-2.38-6.54-1.47c-1.7,0.69-2.78,3.35-3.88,4.71c-0.56,0.7-1.24,0.81-2.11,0.46
		c-6.38-2.54-11.26-6.8-14.78-12.66c-0.6-0.91-0.49-1.63,0.23-2.48c1.06-1.25,2.4-2.67,2.69-4.36c0.29-1.69-0.5-3.66-1.2-5.16
		c-0.89-1.92-1.89-4.66-3.81-5.74c-1.77-1-4.1-0.44-5.67,0.84c-2.72,2.21-4.03,5.68-3.99,9.12c0.01,0.98,0.13,1.95,0.36,2.89
		c0.55,2.27,1.6,4.38,2.78,6.4c0.89,1.52,1.86,2.99,2.9,4.41c3.41,4.63,7.65,8.66,12.57,11.67c2.45,1.5,5.1,2.82,7.84,3.73
		c3.07,1.01,5.81,2.07,9.12,1.44c3.47-0.66,6.89-2.81,8.27-6.15c0.41-0.99,0.61-2.09,0.38-3.14C72.14,58.2,69.22,56.92,67.47,55.87z
		"/>
</g>
</svg>
