<?xml version="1.0" encoding="UTF-8"?>
<svg xmlns="http://www.w3.org/2000/svg" xmlns:xlink="http://www.w3.org/1999/xlink" width="50px" height="50px" viewBox="0 0 50 50" version="1.1">
<g id="surface1">
<path style=" stroke:none;fill-rule:nonzero;fill:rgb(100%,100%,100%);fill-opacity:1;" d="M 1.953125 48.15625 L 5.269531 35.789062 C 3.394531 32.40625 2.40625 28.609375 2.40625 24.757812 C 2.40625 12.171875 12.648438 1.929688 25.234375 1.929688 C 37.824219 1.929688 48.0625 12.175781 48.0625 24.757812 C 48.0625 37.351562 37.824219 47.589844 25.234375 47.589844 C 21.453125 47.589844 17.726562 46.632812 14.382812 44.824219 Z M 15.007812 40.195312 L 15.789062 40.660156 C 18.664062 42.367188 21.929688 43.28125 25.242188 43.28125 C 35.449219 43.28125 43.757812 34.976562 43.757812 24.765625 C 43.757812 14.554688 35.449219 6.25 25.242188 6.25 C 15.03125 6.25 6.726562 14.554688 6.726562 24.765625 C 6.726562 28.132812 7.660156 31.453125 9.4375 34.367188 L 9.914062 35.15625 L 8.0625 42.0625 Z M 15.007812 40.195312 "/>
<path style=" stroke:none;fill-rule:evenodd;fill:rgb(100%,100%,100%);fill-opacity:1;" d="M 33.734375 27.9375 C 32.796875 27.375 31.570312 26.742188 30.464844 27.199219 C 29.617188 27.546875 29.074219 28.875 28.523438 29.554688 C 28.242188 29.90625 27.90625 29.960938 27.46875 29.785156 C 24.28125 28.515625 21.839844 26.382812 20.078125 23.453125 C 19.78125 23 19.835938 22.640625 20.195312 22.214844 C 20.726562 21.589844 21.394531 20.882812 21.539062 20.035156 C 21.6875 19.1875 21.289062 18.203125 20.9375 17.453125 C 20.492188 16.492188 19.992188 15.125 19.035156 14.585938 C 18.148438 14.085938 16.984375 14.367188 16.199219 15.007812 C 14.839844 16.109375 14.1875 17.84375 14.203125 19.5625 C 14.210938 20.054688 14.269531 20.539062 14.382812 21.007812 C 14.660156 22.144531 15.1875 23.199219 15.773438 24.210938 C 16.21875 24.96875 16.703125 25.703125 17.226562 26.414062 C 18.929688 28.730469 21.050781 30.742188 23.507812 32.25 C 24.734375 33 26.0625 33.660156 27.429688 34.117188 C 28.964844 34.617188 30.335938 35.148438 31.992188 34.835938 C 33.726562 34.507812 35.4375 33.429688 36.125 31.757812 C 36.328125 31.265625 36.429688 30.714844 36.3125 30.1875 C 36.070312 29.101562 34.609375 28.460938 33.734375 27.9375 Z M 33.734375 27.9375 "/>
</g>
</svg>
