<?xml version="1.0" encoding="UTF-8"?>
<svg xmlns="http://www.w3.org/2000/svg" xmlns:xlink="http://www.w3.org/1999/xlink" width="100px" height="100px" viewBox="0 0 100 100" version="1.1">
<g id="surface1">
<path style=" stroke:none;fill-rule:nonzero;fill:rgb(100%,100%,100%);fill-opacity:1;" d="M 3.90625 96.3125 L 10.539062 71.578125 C 6.789062 64.8125 4.8125 57.21875 4.8125 49.515625 C 4.8125 24.34375 25.296875 3.859375 50.46875 3.859375 C 75.648438 3.859375 96.125 24.351562 96.125 49.515625 C 96.125 74.703125 75.648438 95.179688 50.46875 95.179688 C 42.90625 95.179688 35.453125 93.265625 28.765625 89.648438 Z M 30.015625 80.390625 L 31.578125 81.320312 C 37.328125 84.734375 43.859375 86.5625 50.484375 86.5625 C 70.898438 86.5625 87.515625 69.953125 87.515625 49.53125 C 87.515625 29.109375 70.898438 12.5 50.484375 12.5 C 30.0625 12.5 13.453125 29.109375 13.453125 49.53125 C 13.453125 56.265625 15.320312 62.90625 18.875 68.734375 L 19.828125 70.3125 L 16.125 84.125 Z M 30.015625 80.390625 "/>
<path style=" stroke:none;fill-rule:evenodd;fill:rgb(100%,100%,100%);fill-opacity:1;" d="M 67.46875 55.875 C 65.59375 54.75 63.140625 53.484375 60.929688 54.398438 C 59.234375 55.09375 58.148438 57.75 57.046875 59.109375 C 56.484375 59.8125 55.8125 59.921875 54.9375 59.570312 C 48.5625 57.03125 43.679688 52.765625 40.15625 46.90625 C 39.5625 46 39.671875 45.28125 40.390625 44.429688 C 41.453125 43.179688 42.789062 41.765625 43.078125 40.070312 C 43.375 38.375 42.578125 36.40625 41.875 34.90625 C 40.984375 32.984375 39.984375 30.25 38.070312 29.171875 C 36.296875 28.171875 33.96875 28.734375 32.398438 30.015625 C 29.679688 32.21875 28.375 35.6875 28.40625 39.125 C 28.421875 40.109375 28.539062 41.078125 28.765625 42.015625 C 29.320312 44.289062 30.375 46.398438 31.546875 48.421875 C 32.4375 49.9375 33.40625 51.40625 34.453125 52.828125 C 37.859375 57.460938 42.101562 61.484375 47.015625 64.5 C 49.46875 66 52.125 67.320312 54.859375 68.234375 C 57.929688 69.234375 60.671875 70.296875 63.984375 69.671875 C 67.453125 69.015625 70.875 66.859375 72.25 63.515625 C 72.65625 62.53125 72.859375 61.429688 72.625 60.375 C 72.140625 58.203125 69.21875 56.921875 67.46875 55.875 Z M 67.46875 55.875 "/>
</g>
</svg>
